<svg width="50" height="50" viewBox="0 0 50 50" fill="none" xmlns="http://www.w3.org/2000/svg">
<g clip-path="url(#clip0_607_752)">
<path fill-rule="evenodd" clip-rule="evenodd" d="M25 26.5625C25.8629 26.5625 26.5625 27.2621 26.5625 28.125V43.75C26.5625 44.6129 25.8629 45.3125 25 45.3125C24.1371 45.3125 23.4375 44.6129 23.4375 43.75V28.125C23.4375 27.2621 24.1371 26.5625 25 26.5625ZM34.375 26.5625C35.2379 26.5625 35.9375 27.2621 35.9375 28.125C35.9375 33.7439 38.6512 38.9051 43.1365 42.1139C43.8383 42.616 44.0003 43.592 43.4982 44.2938C42.996 44.9957 42.0201 45.1576 41.3182 44.6555C36.0213 40.866 32.8125 34.7631 32.8125 28.125C32.8125 27.2621 33.5121 26.5625 34.375 26.5625ZM15.625 26.5625C16.4879 26.5625 17.1875 27.2621 17.1875 28.125C17.1875 34.7555 13.9861 40.8522 8.69933 44.6429C7.99803 45.1458 7.02188 44.9849 6.51903 44.2836C6.01618 43.5823 6.17706 42.6061 6.87835 42.1033C11.3551 38.8934 14.0625 33.7374 14.0625 28.125C14.0625 27.2621 14.7621 26.5625 15.625 26.5625ZM43.75 3.125C47.2018 3.125 50 5.92322 50 9.375V18.75C50 22.2018 47.2018 25 43.75 25H6.25C2.79822 25 0 22.2018 0 18.75V9.375C0 5.92322 2.79822 3.125 6.25 3.125H43.75ZM42.1875 15.625H7.8125C6.94955 15.625 6.25 16.3246 6.25 17.1875C6.25 18.0504 6.94955 18.75 7.8125 18.75H42.1875C43.0504 18.75 43.75 18.0504 43.75 17.1875C43.75 16.3246 43.0504 15.625 42.1875 15.625Z" fill="#202327"/>
</g>
<defs>
<clipPath id="clip0_607_752">
<rect width="50" height="50" fill="white"/>
</clipPath>
</defs>
</svg>
