<svg width="50" height="50" viewBox="0 0 50 50" fill="none" xmlns="http://www.w3.org/2000/svg">
<path d="M48.5 44.22H47.564V27.14C47.564 26.311 46.893 25.64 46.064 25.64H35.764V17.75L38.517 19.701C38.776 19.884 39.08 19.977 39.385 19.977C39.62 19.977 39.857 19.922 40.074 19.81C40.572 19.553 40.885 19.039 40.885 18.477V14.477C40.885 13.991 40.649 13.535 40.253 13.253L25.868 3.05701C25.347 2.68901 24.653 2.68901 24.133 3.05701L9.748 13.254C9.352 13.535 9.116 13.991 9.116 14.478V18.478C9.116 19.039 9.429 19.553 9.927 19.811C10.426 20.069 11.026 20.026 11.484 19.702L14.195 17.78V25.641H3.936C3.107 25.641 2.436 26.312 2.436 27.141V44.22H1.5C0.671 44.22 0 44.891 0 45.72C0 46.549 0.671 47.22 1.5 47.22H48.5C49.329 47.22 50 46.549 50 45.72C50 44.891 49.329 44.22 48.5 44.22ZM30.065 44.22V34.424C30.065 33.595 29.394 32.924 28.565 32.924H21.435C20.606 32.924 19.935 33.595 19.935 34.424V44.22H17.194V27.14V15.653L25 10.119L32.764 15.623V44.22H30.065ZM30.556 18.477C30.556 19.306 29.885 19.977 29.056 19.977H20.944C20.115 19.977 19.444 19.306 19.444 18.477C19.444 17.648 20.115 16.977 20.944 16.977H29.056C29.885 16.977 30.556 17.649 30.556 18.477ZM30.556 22.713C30.556 23.542 29.885 24.213 29.056 24.213H20.944C20.115 24.213 19.444 23.542 19.444 22.713C19.444 21.884 20.115 21.213 20.944 21.213H29.056C29.885 21.213 30.556 21.885 30.556 22.713ZM30.556 26.949C30.556 27.778 29.885 28.449 29.056 28.449H20.944C20.115 28.449 19.444 27.778 19.444 26.949C19.444 26.12 20.115 25.449 20.944 25.449H29.056C29.885 25.449 30.556 26.12 30.556 26.949Z" fill="#262626"/>
</svg>
