<svg width="53" height="52" viewBox="0 0 53 52" fill="none" xmlns="http://www.w3.org/2000/svg">
<g clip-path="url(#clip0_600_2985)">
<path d="M49.1042 20.6378C49.269 14.9164 44.6567 10.1738 38.9348 10.1738C35.6604 10.1738 32.5982 11.7886 30.7062 14.4061C29.5711 13.8523 28.3382 13.5651 27.0652 13.5651C22.9709 13.5651 19.5453 16.4825 18.7575 20.3477H5.58696C2.78201 20.3477 0.5 22.6298 0.5 25.4347C0.5 27.6452 1.91771 29.53 3.89127 30.23V38.9999C3.89127 43.0943 6.80866 46.5198 10.6739 47.3076V49.1738C10.6739 50.1102 11.4331 50.8695 12.3696 50.8695C13.3061 50.8695 14.0653 50.1103 14.0653 49.1738V47.4781H38.9349V49.1738C38.9349 50.1102 39.6941 50.8695 40.6306 50.8695C41.5671 50.8695 42.3263 50.1103 42.3263 49.1738V47.3076C46.1914 46.5199 49.1089 43.0944 49.1089 38.9999V30.23C51.0823 29.53 52.5 27.6452 52.5 25.4347C52.5 23.2225 51.0801 21.3366 49.1042 20.6378ZM27.0652 16.9565C28.2001 16.9565 29.2903 17.3483 30.218 18.0894C31.0746 18.7737 32.3463 18.4765 32.8116 17.4847C33.9286 15.1037 36.3322 13.5651 38.9348 13.5651C42.6747 13.5651 45.7175 16.6078 45.7175 20.3477H22.2699C22.9699 18.3741 24.8547 16.9565 27.0652 16.9565ZM45.7174 38.9999C45.7174 41.8049 43.4353 44.0869 40.6304 44.0869H12.3696C9.56466 44.0869 7.28265 41.8049 7.28265 38.9999V30.5217H45.7175L45.7174 38.9999ZM47.413 27.1303H5.58696C4.65198 27.1303 3.89127 26.3696 3.89127 25.4346C3.89127 24.4996 4.65198 23.7389 5.58696 23.7389C6.02957 23.7389 47.3839 23.7389 47.413 23.7389C48.348 23.7389 49.1087 24.4996 49.1087 25.4346C49.1087 26.3697 48.348 27.1303 47.413 27.1303Z" fill="#262626"/>
<path d="M28.1963 1.13037C25.3914 1.13037 23.1094 3.41238 23.1094 6.21733C23.1094 9.02228 25.3914 11.3043 28.1963 11.3043C31.0013 11.3043 33.2833 9.02228 33.2833 6.21733C33.2833 3.41238 31.0013 1.13037 28.1963 1.13037ZM28.1963 7.91302C27.2614 7.91302 26.5006 7.15232 26.5006 6.21733C26.5006 5.28235 27.2614 4.52164 28.1963 4.52164C29.1313 4.52164 29.892 5.28235 29.892 6.21733C29.892 7.15232 29.1313 7.91302 28.1963 7.91302Z" fill="#262626"/>
<path d="M19.1527 12.4348C20.0892 12.4348 20.8484 11.6756 20.8484 10.7391C20.8484 9.80264 20.0892 9.04346 19.1527 9.04346C18.2162 9.04346 17.457 9.80264 17.457 10.7391C17.457 11.6756 18.2162 12.4348 19.1527 12.4348Z" fill="#262626"/>
<path d="M38.3695 6.78273C39.306 6.78273 40.0652 6.02355 40.0652 5.08704C40.0652 4.15054 39.306 3.39136 38.3695 3.39136C37.433 3.39136 36.6738 4.15054 36.6738 5.08704C36.6738 6.02355 37.433 6.78273 38.3695 6.78273Z" fill="#262626"/>
</g>
<defs>
<clipPath id="clip0_600_2985">
<rect width="52" height="52" fill="white" transform="translate(0.5)"/>
</clipPath>
</defs>
</svg>
