<svg width="50" height="50" viewBox="0 0 50 50" fill="none" xmlns="http://www.w3.org/2000/svg">
<path d="M50 29.3909C50 28.0233 48.7901 26.9134 47.2973 26.9134H45.5712C44.0784 26.9134 42.8685 25.7035 42.8685 24.2107V14.6909C42.8685 13.1981 42.2189 10.9666 41.4198 9.7071L38.9865 5.87737C38.1865 4.61791 36.8712 4.6062 36.0495 5.85304L33.4919 9.73232C32.6703 10.9792 32.0045 13.199 32.0045 14.6918V24.2116C32.0045 25.7044 30.7946 26.9143 29.3018 26.9143H20.6477C19.155 26.9143 17.945 25.7044 17.945 24.2116V14.6909C17.945 13.1981 17.2955 10.9666 16.4964 9.7071L14.0631 5.87737C13.2631 4.61791 11.9477 4.6062 11.1261 5.85304L8.56847 9.73232C7.74685 10.9792 7.08108 13.199 7.08108 14.6918V24.2116C7.08108 25.7044 5.87117 26.9143 4.37838 26.9143H2.7027C1.20991 26.9143 0 28.0242 0 29.3918C0 30.7603 1.20991 31.8693 2.7027 31.8693H4.37658C5.86937 31.8693 7.07928 32.6251 7.07928 33.5567C7.07928 34.4882 5.86937 35.244 4.37658 35.244H2.7027C1.20991 35.244 0 36.353 0 37.7215C0 39.09 1.20991 40.199 2.7027 40.199H4.37658C5.86937 40.199 7.07928 41.29 7.07928 42.6359C7.07928 43.9828 8.28919 45.0738 9.78198 45.0738H15.2414C16.7342 45.0738 17.9441 43.9828 17.9441 42.6359C17.9441 41.29 19.1541 40.199 20.6468 40.199H29.3009C30.7937 40.199 32.0036 41.29 32.0036 42.6359C32.0036 43.9828 33.2135 45.0738 34.7063 45.0738H40.1658C41.6586 45.0738 42.8685 43.9828 42.8685 42.6359C42.8685 41.29 44.0784 40.199 45.5712 40.199H47.2973C48.7901 40.199 50 39.09 50 37.7215C50 36.353 48.7901 35.244 47.2973 35.244H45.5712C44.0784 35.244 42.8685 34.4882 42.8685 33.5567C42.8685 32.6251 44.0784 31.8693 45.5712 31.8693H47.2973C48.7901 31.8684 50 30.7585 50 29.3909ZM29.3009 35.2431H20.6468C19.1541 35.2431 17.9441 34.4873 17.9441 33.5557C17.9441 32.6242 19.1541 31.8684 20.6468 31.8684H29.3009C30.7937 31.8684 32.0036 32.6242 32.0036 33.5557C32.0036 34.4873 30.7946 35.2431 29.3009 35.2431Z" fill="#262626"/>
</svg>
