<svg width="50" height="50" viewBox="0 0 50 50" fill="none" xmlns="http://www.w3.org/2000/svg">
<g clip-path="url(#clip0_607_663)">
<path d="M0 -0.136597V13.417V16.3874V26.9705V29.9409V43.4946H2.55908V48.1365H47.4408V43.4946H50V29.941V26.9706V16.3875V13.4171V-0.136597H0ZM44.4704 45.1661H5.52959V43.4947H44.4705L44.4704 45.1661ZM47.0296 40.5242H44.4705H5.52959H2.97041V29.941H47.0296V40.5242ZM47.0296 26.9706H2.97041V16.3875H47.0296V26.9706ZM47.0296 13.4171H2.97041V2.83381H47.0296V13.4171Z" fill="black"/>
<path d="M24.9994 10.6296C26.3825 10.6296 27.5037 9.50835 27.5037 8.12527C27.5037 6.74218 26.3825 5.62097 24.9994 5.62097C23.6163 5.62097 22.4951 6.74218 22.4951 8.12527C22.4951 9.50835 23.6163 10.6296 24.9994 10.6296Z" fill="black"/>
<path d="M24.9994 37.7366C26.3825 37.7366 27.5037 36.6154 27.5037 35.2323C27.5037 33.8492 26.3825 32.728 24.9994 32.728C23.6163 32.728 22.4951 33.8492 22.4951 35.2323C22.4951 36.6154 23.6163 37.7366 24.9994 37.7366Z" fill="black"/>
<path d="M24.9994 24.1836C26.3825 24.1836 27.5037 23.0624 27.5037 21.6793C27.5037 20.2963 26.3825 19.175 24.9994 19.175C23.6163 19.175 22.4951 20.2963 22.4951 21.6793C22.4951 23.0624 23.6163 24.1836 24.9994 24.1836Z" fill="black"/>
</g>
<defs>
<clipPath id="clip0_607_663">
<rect width="50" height="50" fill="white"/>
</clipPath>
</defs>
</svg>
