<svg width="50" height="50" viewBox="0 0 50 50" fill="none" xmlns="http://www.w3.org/2000/svg">
<path d="M38.5875 13.5869H11.4137C10.5133 13.5869 9.7832 14.3169 9.7832 15.2174V34.7826C9.7832 35.683 10.5132 36.4131 11.4137 36.4131H38.5875C39.4879 36.4131 40.218 35.6831 40.218 34.7826V15.2174C40.218 14.317 39.488 13.5869 38.5875 13.5869ZM36.9571 33.1521H13.044V16.8479H36.9571V33.1521Z" fill="black"/>
<path d="M32.7479 23.5196L25.6826 20.2588C25.2491 20.0586 24.7496 20.0586 24.3161 20.2588L17.2509 23.5196C16.6735 23.786 16.3037 24.364 16.3037 25C16.3037 25.636 16.6735 26.2139 17.2509 26.4804L24.3161 29.7412C24.5328 29.8413 24.7661 29.8913 24.9994 29.8913C25.2327 29.8913 25.4659 29.8413 25.6827 29.7412L32.7479 26.4804C33.3253 26.214 33.6951 25.636 33.6951 25C33.6951 24.364 33.3253 23.7861 32.7479 23.5196ZM24.9994 26.4651L21.825 25L24.9994 23.5349L28.1738 25L24.9994 26.4651Z" fill="black"/>
<path d="M48.3695 16.8479C49.2699 16.8479 50 16.1179 50 15.2174C50 14.3169 49.27 13.587 48.3695 13.587H46.7391V10.3261H48.3695C49.2699 10.3261 50 9.59614 50 8.69565C50 7.79526 49.27 7.06519 48.3695 7.06519H45.1087H5.97822H4.89131H1.63047C0.72998 7.06528 0 7.79526 0 8.69575C0 9.59614 0.72998 10.3262 1.63047 10.3262H3.26094V13.5871H1.63047C0.72998 13.587 0 14.317 0 15.2174C0 16.1178 0.72998 16.8479 1.63047 16.8479H3.26094V20.1087H1.63047C0.72998 20.1087 0 20.8387 0 21.7392C0 22.6397 0.72998 23.3697 1.63047 23.3697H3.26094V26.6305H1.63047C0.72998 26.6305 0 27.3605 0 28.2609C0 29.1613 0.72998 29.8914 1.63047 29.8914H3.26094V33.1522H1.63047C0.72998 33.1522 0 33.8822 0 34.7827C0 35.6831 0.72998 36.4131 1.63047 36.4131H3.26094V39.674H1.63047C0.72998 39.674 0 40.4039 0 41.3044C0 42.2048 0.72998 42.9349 1.63047 42.9349H4.89131H5.97822H45.1087H48.3695C49.2699 42.9349 50 42.2049 50 41.3044C50 40.404 49.27 39.674 48.3695 39.674H46.7391V36.4131H48.3695C49.2699 36.4131 50 35.6832 50 34.7827C50 33.8823 49.27 33.1522 48.3695 33.1522H46.7391V29.8914H48.3695C49.2699 29.8914 50 29.1614 50 28.2609C50 27.3604 49.27 26.6304 48.3695 26.6304H46.7391V23.3696H48.3695C49.2699 23.3696 50 22.6396 50 21.7391C50 20.8386 49.27 20.1086 48.3695 20.1086H46.7391V16.8478H48.3695V16.8479ZM43.4782 39.674H6.52178V10.3261H43.4783L43.4782 39.674Z" fill="black"/>
</svg>
