<svg width="50" height="50" viewBox="0 0 50 50" fill="none" xmlns="http://www.w3.org/2000/svg">
<path d="M46.7188 27.6563C46.7188 27.5 46.7188 27.5 46.7188 27.6563C46.5625 27.5 46.5625 27.3438 46.5625 27.3438L40.3125 17.9688C40 17.5 39.5312 17.1875 39.0625 17.1875H31.25C30.3125 17.1875 29.6875 17.8125 29.6875 18.75V31.875C28.4375 32.3438 27.3438 33.2812 26.5625 34.375H23.4375V30.4688C23.5938 30.3125 23.5938 30.1563 23.75 30L27.9688 19.5312C28.125 19.0625 28.125 18.4375 27.8125 17.9688C25.7812 15.1562 22.5 12.6562 18.5937 11.0937C17.1875 10.625 15.7812 10.3125 14.5312 10L6.25 30V32.8125C4.375 34.2188 3.125 36.4062 3.125 39.0625C3.125 43.4375 6.5625 46.875 10.9375 46.875C15.3125 46.875 18.75 43.4375 18.75 39.0625C18.75 38.5938 18.75 37.9688 18.5937 37.5H25.1562C25 37.9688 25 38.5938 25 39.0625C25 43.4375 28.4375 46.875 32.8125 46.875C37.1875 46.875 40.625 43.4375 40.625 39.0625H45.3125C46.25 39.0625 46.875 38.4375 46.875 37.5V28.125C46.875 27.9688 46.875 27.8125 46.7188 27.6563ZM10.9375 43.75C8.28125 43.75 6.25 41.7188 6.25 39.0625C6.25 36.4062 8.28125 34.375 10.9375 34.375C13.5938 34.375 15.625 36.4062 15.625 39.0625C15.625 41.7188 13.5938 43.75 10.9375 43.75ZM32.8125 20.3125H38.2812L42.5 26.5625H41.0938C39.5312 26.5625 38.125 25.625 37.5 24.375C37.0312 23.75 36.5625 23.4375 35.9375 23.4375H32.8125V20.3125ZM32.8125 43.75C30.1562 43.75 28.125 41.7188 28.125 39.0625C28.125 36.4062 30.1562 34.375 32.8125 34.375C35.4688 34.375 37.5 36.4062 37.5 39.0625C37.5 41.7188 35.4688 43.75 32.8125 43.75Z" fill="#262626"/>
<path d="M4.68759 25.6251L11.2501 9.53134C9.84384 9.37509 8.43759 9.37509 7.18759 9.68759C6.56259 9.68759 6.09384 10.1563 5.93759 10.6251L1.71884 21.0938C1.56259 21.5626 1.56259 22.1876 1.87509 22.6563C2.65634 23.7501 3.59384 24.6876 4.68759 25.6251Z" fill="#262626"/>
</svg>
