<svg width="52" height="52" viewBox="0 0 52 52" fill="none" xmlns="http://www.w3.org/2000/svg">
<path d="M32.5 33.8878C32.5 32.0417 33.5433 30.3534 35.1943 29.5279L39 27.625L27.625 4.875H24.375L13 27.625L16.8057 29.5279C18.4567 30.3534 19.5 32.0417 19.5 33.8878V34.125H16.25V47.125H35.75V34.125H32.5V33.8878ZM18.2585 26.6208L17.3599 26.1723L24.375 12.142V24.375H27.625V12.142L34.6401 26.1706L33.7415 26.6191C30.9709 28.0053 29.25 30.7905 29.25 33.8878V34.125H22.75V33.8878C22.75 30.7905 21.0291 28.0052 18.2585 26.6208ZM32.5 43.875H19.5V37.375H32.5V43.875Z" fill="#262626"/>
</svg>
