<svg width="53" height="52" viewBox="0 0 53 52" fill="none" xmlns="http://www.w3.org/2000/svg">
<path d="M33 33.8878C33 32.0417 34.0433 30.3534 35.6943 29.5279L39.5 27.625L28.125 4.875H24.875L13.5 27.625L17.3057 29.5279C18.9567 30.3534 20 32.0417 20 33.8878V34.125H16.75V47.125H36.25V34.125H33V33.8878ZM18.7585 26.6208L17.8599 26.1723L24.875 12.142V24.375H28.125V12.142L35.1401 26.1706L34.2415 26.6191C31.4709 28.0053 29.75 30.7905 29.75 33.8878V34.125H23.25V33.8878C23.25 30.7905 21.5291 28.0052 18.7585 26.6208ZM33 43.875H20V37.375H33V43.875Z" fill="#262626"/>
</svg>
