<svg width="52" height="52" viewBox="0 0 52 52" fill="none" xmlns="http://www.w3.org/2000/svg">
<path d="M46.2416 17.2899L46.5714 16.9698C46.6388 16.906 46.6925 16.829 46.7292 16.7438C46.7659 16.6585 46.7848 16.5666 46.7848 16.4738C46.7848 16.3809 46.7659 16.2891 46.7292 16.2038C46.6925 16.1185 46.6388 16.0416 46.5714 15.9778L38.8218 8.47594C38.6834 8.34335 38.4992 8.26933 38.3075 8.26933C38.1158 8.26933 37.9316 8.34335 37.7932 8.47594C37.7932 8.47594 36.1852 9.39325 35.8936 6.98338C35.7774 6.01406 35.558 5.40794 35.2696 5.06181C35.2338 5.022 33.6356 3.4555 33.6356 3.4555C33.497 3.32328 33.3128 3.24951 33.1213 3.24951C32.9298 3.24951 32.7456 3.32328 32.607 3.4555L26.8066 9.0715C26.7392 9.13555 26.6856 9.21263 26.649 9.29804C26.6124 9.38345 26.5935 9.47541 26.5935 9.56834C26.5935 9.66128 26.6124 9.75324 26.649 9.83865C26.6856 9.92406 26.7392 10.0011 26.8066 10.0652C26.8066 10.0652 28.4242 11.613 28.4665 11.6455C28.8232 11.9258 29.4488 12.1379 30.4514 12.25C32.9409 12.5328 31.9919 14.0879 31.9919 14.0879C31.9246 14.1521 31.8709 14.2293 31.8343 14.3148C31.7976 14.4004 31.7787 14.4925 31.7787 14.5855C31.7787 14.6786 31.7976 14.7707 31.8343 14.8562C31.8709 14.9418 31.9246 15.019 31.9919 15.0832L33.673 16.7106L29.3204 20.9234L28.6761 20.2994C28.6761 20.2994 26.3873 21.7189 23.8726 24.1548C21.0947 26.8425 19.5379 30.3939 15.8727 33.9405C10.3616 39.2746 7.68031 40.4836 5.45812 42.0931C4.61962 42.6984 4.69843 42.7943 5.46625 43.5377L7.855 45.8517L10.2437 48.1641C11.0116 48.9051 11.1115 48.9815 11.7387 48.1722C13.4003 46.0224 14.7499 43.5239 20.2611 38.1874C23.9254 34.6425 27.5971 33.1345 30.3718 30.4467C32.8873 28.0117 34.3547 25.7968 34.3547 25.7968L33.7104 25.172L38.0605 20.9592L39.7416 22.5874C39.8803 22.719 40.0642 22.7921 40.2554 22.7918C40.4465 22.7915 40.6303 22.7178 40.7686 22.5858L41.0229 22.3396C42.5097 23.5543 47.3035 27.9564 45.7874 33.0963C45.5802 33.7991 45.2227 34.4256 45.4055 34.6035C45.6549 34.8432 46.6088 33.9226 47.1646 33.3807C54.2252 26.4956 47.6447 18.7793 46.2416 17.2899Z" fill="#262626"/>
<path d="M33.1265 29.614C32.4866 30.3236 31.8232 31.0116 31.1375 31.6769C30.0967 32.6844 28.9551 33.5619 27.7461 34.4143L39.2552 45.9063C39.5943 46.2414 40.0519 46.4294 40.5288 46.4294C41.0056 46.4294 41.4632 46.2414 41.8023 45.9063L44.3495 43.3631C44.6866 43.0258 44.876 42.5685 44.876 42.0916C44.876 41.6147 44.6866 41.1573 44.3495 40.82L33.1265 29.614Z" fill="#262626"/>
<path d="M10.2216 23.8704L13.7032 20.3945L20.1097 26.7913C20.958 25.6717 21.8347 24.6122 22.8357 23.6437C23.5662 22.9369 24.3215 22.2562 25.1001 21.6027L18.7959 15.3091L22.2759 11.8348C22.4451 11.6659 22.5793 11.4653 22.6709 11.2445C22.7625 11.0237 22.8097 10.7869 22.8097 10.5478C22.8097 10.3088 22.7625 10.072 22.6709 9.85119C22.5793 9.63035 22.4451 9.42974 22.2759 9.26085L16.7899 3.78297C16.4468 3.44234 15.983 3.25104 15.4995 3.25073C15.0161 3.25043 14.5521 3.44114 14.2086 3.78135L10.7302 7.2556L9.38555 5.91335C9.04685 5.57781 8.58946 5.38944 8.1127 5.38914C7.63594 5.38884 7.17831 5.57662 6.83918 5.91172L4.2928 8.45647C3.95661 8.79393 3.76784 9.25087 3.76784 9.72722C3.76784 10.2036 3.95661 10.6605 4.2928 10.998L5.63749 12.3402L2.15593 15.8161C1.81586 16.1584 1.625 16.6214 1.625 17.1039C1.625 17.5864 1.81586 18.0494 2.15593 18.3917L7.64599 23.8704C7.98843 24.2103 8.45134 24.401 8.9338 24.401C9.41627 24.401 9.87918 24.2103 10.2216 23.8704Z" fill="#262626"/>
</svg>
