<svg width="52" height="52" viewBox="0 0 52 52" fill="none" xmlns="http://www.w3.org/2000/svg">
<path d="M36.5888 4.38628C33.8862 1.67893 30.1284 -0.00162382 25.9992 1.1774e-06C21.8701 -0.00162382 18.1123 1.67893 15.4097 4.38628C12.704 7.09038 11.0219 10.8466 11.0234 14.9758C11.0218 18.494 12.2438 21.7455 14.2814 24.2989C14.8812 25.0544 15.4002 25.6811 15.8143 26.2191C16.1254 26.6222 16.3777 26.9745 16.5777 27.295C16.8776 27.7774 17.0601 28.1758 17.195 28.6534C17.3267 29.1327 17.4077 29.7167 17.4092 30.5419C17.4092 31.0973 17.471 31.6384 17.6266 32.17C17.7425 32.5667 17.9155 32.9603 18.1598 33.3221C18.5201 33.868 19.0549 34.3267 19.642 34.5981C20.2276 34.8726 20.8385 34.9726 21.4083 34.9726H30.5918C31.098 34.9726 31.636 34.8933 32.1629 34.6823C32.5564 34.5252 32.9404 34.2903 33.2674 33.9888C33.7625 33.5381 34.11 32.9589 34.3115 32.3686C34.5146 31.775 34.5908 31.1673 34.5908 30.5421C34.5908 29.8089 34.6559 29.2646 34.7623 28.8187C34.9273 28.1521 35.1685 27.657 35.6399 26.9635C36.108 26.2764 36.8157 25.4322 37.7203 24.2991C39.7563 21.7458 40.9767 18.4926 40.975 14.976C40.9766 10.8466 39.2944 7.09038 36.5888 4.38628ZM34.3813 21.6392C33.8052 22.3597 33.2863 22.9897 32.8054 23.6101C32.4468 24.0767 32.1088 24.54 31.7994 25.0352C31.3376 25.7746 30.944 26.5967 30.6901 27.5171C30.4362 28.4376 30.3219 29.4325 30.3219 30.5418C30.3219 30.6021 30.3203 30.656 30.3172 30.7037H21.6844C21.6812 30.656 21.678 30.6037 21.678 30.5418C21.678 29.5547 21.5891 28.6597 21.3876 27.825C21.0924 26.5698 20.5354 25.497 19.8816 24.5496C19.2231 23.5943 18.4787 22.7215 17.6202 21.6392C16.1603 19.8063 15.2938 17.5022 15.2922 14.9758C15.2938 12.013 16.4872 9.35015 18.4296 7.40462C20.3736 5.46376 23.0349 4.26877 25.9992 4.26877C28.9635 4.26877 31.6264 5.46376 33.5704 7.40452C35.5112 9.35005 36.7045 12.0129 36.7062 14.9757C36.7045 17.5037 35.8381 19.8078 34.3813 21.6392Z" fill="#262626"/>
<path d="M25.9993 52C27.7671 52 29.2017 50.567 29.2017 48.7976H22.7969C22.797 50.567 24.2315 52 25.9993 52Z" fill="#262626"/>
<path d="M31.4881 37.5146H20.5114C19.5561 37.5146 18.7832 38.2874 18.7832 39.2412C18.7832 40.1965 19.556 40.9694 20.5114 40.9694H31.4881C32.4418 40.9694 33.2162 40.1966 33.2162 39.2412C33.2162 38.2874 32.4418 37.5146 31.4881 37.5146Z" fill="#262626"/>
<path d="M31.4881 43.0928H20.5114C19.5561 43.0928 18.7832 43.8656 18.7832 44.821C18.7832 45.7747 19.556 46.5475 20.5114 46.5475H31.4881C32.4418 46.5475 33.2162 45.7747 33.2162 44.821C33.2162 43.8656 32.4418 43.0928 31.4881 43.0928Z" fill="#262626"/>
</svg>
