<svg width="53" height="52" viewBox="0 0 53 52" fill="none" xmlns="http://www.w3.org/2000/svg">
<g clip-path="url(#clip0_600_3057)">
<path fill-rule="evenodd" clip-rule="evenodd" d="M39.6857 29.3982C39.9311 31.4972 37.7729 33.3083 35.8813 32.7328C35.619 33.1941 35.4116 33.7738 35.255 34.4763C34.8953 36.1098 35.0011 35.6104 35.1577 37.1889C35.3693 39.2963 35.1408 40.7309 33.7866 41.3445V42.1528H6.37319V41.3445C5.31947 40.9679 4.86244 39.9353 5.02325 38.2299C5.37449 35.0264 5.15444 34.0235 4.3504 32.8175C2.93699 32.8682 1.91713 32.5297 1.27813 31.8188C-0.0210196 30.3757 0.372535 28.2556 1.99753 27.2358C2.33184 27.0242 2.7254 26.8676 3.18243 26.7703C4.08803 26.5798 4.73549 26.5756 5.58608 26.9692C7.36765 27.7944 8.67527 29.8806 9.51316 32.4154L18.6538 32.6609C19.2801 32.7455 19.6779 33.0206 19.9402 33.4014C20.1899 33.0333 20.5454 32.754 21.0913 32.627C23.935 32.5043 25.9747 32.8809 28.0525 32.8809H30.4731C30.9682 32.8852 31.2264 32.6609 31.311 32.2631C31.8992 30.4604 32.9318 29.0258 34.1971 27.7817C35.035 26.9607 35.1873 26.656 36.3976 26.6941C37.7983 26.7406 39.3302 27.7097 39.6857 29.3982ZM41.7719 9.04761H50.0662L52.4995 18.6453H39.3556L41.7719 9.04761ZM46.7274 20.0925V41.3529H49.9393C50.3836 41.3529 50.7433 41.7126 50.7433 42.157C50.7433 42.6013 50.3836 42.961 49.9393 42.961H41.9158C41.4715 42.961 41.1118 42.6013 41.1118 42.157C41.1118 41.7126 41.4715 41.3529 41.9158 41.3529H45.1277V20.0925H46.7274ZM5.9627 26.2201H5.96694C6.88523 24.1677 8.32826 23.6514 10.2918 24.3412L12.3992 31.5776H10.1225L9.45391 30.2107L8.71759 28.7042C8.37058 28.1117 7.9728 27.6124 7.51576 27.2019C7.05027 26.7872 6.53399 26.4613 5.9627 26.2201ZM11.1762 24.3878C11.2016 24.3751 11.227 24.3539 11.2397 24.3201C12.0141 22.53 14.1554 22.0264 15.9074 22.7924C15.9074 22.7882 15.9116 22.7839 15.9116 22.7839L16.3898 32.005H13.3598L11.1762 24.3878ZM16.8468 22.602C17.4139 20.2449 22.7882 20.7273 23.2791 22.3523C23.351 22.3481 22.7247 31.0528 22.6782 32.0219H21.8784C21.3283 32.0219 21.2352 32.0134 20.7104 32.1785C20.4523 32.2589 20.1941 32.3393 19.936 32.4197L19.2547 32.1658C18.8019 31.9965 18.7469 32.0219 18.2645 32.0219H17.2573L16.868 22.6062L16.8468 22.602ZM23.9816 22.9955C23.9985 22.9955 24.0197 22.9913 24.0366 22.9828C25.9832 21.946 28.6873 22.6993 28.9497 24.0535L28.8185 24.1042L26.6857 32.005H23.533L23.9816 22.9955ZM29.5971 24.6755C29.6268 24.6798 29.6564 24.6713 29.686 24.6459C31.1968 23.461 33.4142 23.9604 34.4298 26.436H34.4087C32.407 28.1371 30.9767 29.9822 30.4562 32.0473H27.5574L29.5971 24.6755Z" fill="#262626"/>
</g>
<defs>
<clipPath id="clip0_600_3057">
<rect width="52" height="52" fill="white" transform="translate(0.5)"/>
</clipPath>
</defs>
</svg>
