<svg width="28" height="28" viewBox="0 0 28 28" fill="none" xmlns="http://www.w3.org/2000/svg">
<path fill-rule="evenodd" clip-rule="evenodd" d="M14.0039 16.3374C16.9034 16.3374 19.2539 13.9868 19.2539 11.0874C19.2539 8.18791 16.9034 5.8374 14.0039 5.8374C11.1044 5.8374 8.75391 8.18791 8.75391 11.0874C8.75391 13.9868 11.1044 16.3374 14.0039 16.3374ZM14.0039 14.0083C12.3908 14.0083 11.0831 12.7006 11.0831 11.0874C11.0831 9.47425 12.3908 8.16655 14.0039 8.16655C15.6171 8.16655 16.9248 9.47425 16.9248 11.0874C16.9248 12.7006 15.6171 14.0083 14.0039 14.0083Z" fill="#666666"/>
<path fill-rule="evenodd" clip-rule="evenodd" d="M24.8914 13.508C26.3998 6.74872 21.0801 0 14.074 0C7.06995 0 1.74983 6.75799 3.25689 13.5088C4.42014 18.9917 9.12411 24.3168 11.9316 27.0939C13.1339 28.2832 15.0141 28.2832 16.2165 27.0939C19.0241 24.3167 23.7284 18.9911 24.8914 13.508ZM14.074 2.33333C19.5718 2.33333 23.8003 7.68398 22.614 12.9998C22.0442 15.554 20.7659 17.8476 19.2658 19.968C17.6982 22.184 15.9208 24.1043 14.5756 25.435C14.2824 25.7251 13.8657 25.7251 13.5725 25.435C12.2273 24.1045 10.4501 22.1842 8.88248 19.9684C7.38226 17.8479 6.10438 15.5547 5.53417 13.0004C4.34915 7.69216 8.57918 2.33333 14.074 2.33333Z" fill="#666666"/>
</svg>
