<svg width="52" height="52" viewBox="0 0 52 52" fill="none" xmlns="http://www.w3.org/2000/svg">
<g clip-path="url(#clip0_607_743)">
<path d="M50.1522 33.8611L46.1898 29.8987L50.2267 25.8618C50.701 25.3876 50.7012 24.6186 50.2267 24.1443L26.4381 0.355779C25.9637 -0.118593 25.1946 -0.118593 24.7208 0.355779L14.2432 10.8331C13.7686 11.3076 13.7686 12.0763 14.2432 12.5508L38.032 36.3392C38.5062 36.8138 39.275 36.8138 39.7492 36.3392L43.0121 33.0763L45.3858 35.45L38.7154 42.1204L24.8921 28.2974C24.4708 27.876 23.8992 27.6392 23.3032 27.6392C22.7073 27.6392 22.1358 27.8761 21.7144 28.2975L18.8528 31.1591C17.6618 29.997 15.7543 30.0043 14.5736 31.1846L2.08119 43.6771C0.891982 44.8666 0.892322 46.7958 2.08153 47.985L5.20441 51.1079C6.39387 52.2971 8.32306 52.2977 9.51251 51.1082L22.0044 38.6157C23.1853 37.4352 23.1919 35.5279 22.0303 34.3366L23.3033 33.0636L37.1266 46.8865C37.5653 47.3252 38.1406 47.5447 38.7155 47.5447C39.2905 47.5447 39.8656 47.3252 40.3044 46.8865L50.1525 37.0387C50.5738 36.6174 50.8106 36.0458 50.8106 35.4499C50.8104 34.854 50.5736 34.2826 50.1522 33.8611Z" fill="#262626"/>
<path d="M50.1522 33.8611L46.1898 29.8987L50.2267 25.8618C50.701 25.3876 50.7012 24.6186 50.2267 24.1443L26.4381 0.355779C25.9637 -0.118593 25.1946 -0.118593 24.7208 0.355779L14.2432 10.8331C13.7686 11.3076 13.7686 12.0763 14.2432 12.5508L38.032 36.3392C38.5062 36.8138 39.275 36.8138 39.7492 36.3392L43.0121 33.0763L45.3858 35.45L38.7154 42.1204L24.8921 28.2974C24.4708 27.876 23.8992 27.6392 23.3032 27.6392C22.7073 27.6392 22.1358 27.8761 21.7144 28.2975L18.8528 31.1591C17.6618 29.997 15.7543 30.0043 14.5736 31.1846L2.08119 43.6771C0.891982 44.8666 0.892322 46.7958 2.08153 47.985L5.20441 51.1079C6.39387 52.2971 8.32306 52.2977 9.51251 51.1082L22.0044 38.6157C23.1853 37.4352 23.1919 35.5279 22.0303 34.3366L23.3033 33.0636L37.1266 46.8865C37.5653 47.3252 38.1406 47.5447 38.7155 47.5447C39.2905 47.5447 39.8656 47.3252 40.3044 46.8865L50.1525 37.0387C50.5738 36.6174 50.8106 36.0458 50.8106 35.4499C50.8104 34.854 50.5736 34.2826 50.1522 33.8611Z" stroke="#262626"/>
</g>
<defs>
<clipPath id="clip0_607_743">
<rect width="52" height="52" fill="white"/>
</clipPath>
</defs>
</svg>
