<svg width="53" height="52" viewBox="0 0 53 52" fill="none" xmlns="http://www.w3.org/2000/svg">
<g clip-path="url(#clip0_600_3018)">
<path d="M50.6522 33.8611L46.6898 29.8987L50.7267 25.8618C51.201 25.3876 51.2012 24.6186 50.7267 24.1443L26.9381 0.355779C26.4637 -0.118593 25.6946 -0.118593 25.2208 0.355779L14.7432 10.8331C14.2686 11.3076 14.2686 12.0763 14.7432 12.5508L38.532 36.3392C39.0062 36.8138 39.775 36.8138 40.2492 36.3392L43.5121 33.0763L45.8858 35.45L39.2154 42.1204L25.3921 28.2974C24.9708 27.876 24.3992 27.6392 23.8032 27.6392C23.2073 27.6392 22.6358 27.8761 22.2144 28.2975L19.3528 31.1591C18.1618 29.997 16.2543 30.0043 15.0736 31.1846L2.58119 43.6771C1.39198 44.8666 1.39232 46.7958 2.58153 47.985L5.70441 51.1079C6.89387 52.2971 8.82306 52.2977 10.0125 51.1082L22.5044 38.6157C23.6853 37.4352 23.6919 35.5279 22.5303 34.3366L23.8033 33.0636L37.6266 46.8865C38.0653 47.3252 38.6406 47.5447 39.2155 47.5447C39.7905 47.5447 40.3656 47.3252 40.8044 46.8865L50.6525 37.0387C51.0738 36.6174 51.3106 36.0458 51.3106 35.4499C51.3104 34.854 51.0736 34.2826 50.6522 33.8611Z" fill="#262626"/>
<path d="M50.6522 33.8611L46.6898 29.8987L50.7267 25.8618C51.201 25.3876 51.2012 24.6186 50.7267 24.1443L26.9381 0.355779C26.4637 -0.118593 25.6946 -0.118593 25.2208 0.355779L14.7432 10.8331C14.2686 11.3076 14.2686 12.0763 14.7432 12.5508L38.532 36.3392C39.0062 36.8138 39.775 36.8138 40.2492 36.3392L43.5121 33.0763L45.8858 35.45L39.2154 42.1204L25.3921 28.2974C24.9708 27.876 24.3992 27.6392 23.8032 27.6392C23.2073 27.6392 22.6358 27.8761 22.2144 28.2975L19.3528 31.1591C18.1618 29.997 16.2543 30.0043 15.0736 31.1846L2.58119 43.6771C1.39198 44.8666 1.39232 46.7958 2.58153 47.985L5.70441 51.1079C6.89387 52.2971 8.82306 52.2977 10.0125 51.1082L22.5044 38.6157C23.6853 37.4352 23.6919 35.5279 22.5303 34.3366L23.8033 33.0636L37.6266 46.8865C38.0653 47.3252 38.6406 47.5447 39.2155 47.5447C39.7905 47.5447 40.3656 47.3252 40.8044 46.8865L50.6525 37.0387C51.0738 36.6174 51.3106 36.0458 51.3106 35.4499C51.3104 34.854 51.0736 34.2826 50.6522 33.8611Z" stroke="#262626"/>
</g>
<defs>
<clipPath id="clip0_600_3018">
<rect width="52" height="52" fill="white" transform="translate(0.5)"/>
</clipPath>
</defs>
</svg>
