<svg width="50" height="50" viewBox="0 0 50 50" fill="none" xmlns="http://www.w3.org/2000/svg">
<g clip-path="url(#clip0_604_542)">
<path d="M12.6045 12.4998C13.6343 12.479 14.6349 12.1533 15.4796 11.564C16.3243 10.9746 16.9753 10.148 17.3503 9.18861C17.7253 8.22926 17.8074 7.18027 17.5862 6.17427C17.3651 5.16827 16.8506 4.25044 16.1078 3.53681C15.3651 2.82318 14.4274 2.34581 13.4134 2.16506C12.3993 1.9843 11.3544 2.10827 10.4109 2.5213C9.46728 2.93433 8.66735 3.61786 8.1122 4.48548C7.55706 5.3531 7.27165 6.36585 7.29204 7.39567C7.30558 8.07968 7.45375 8.75432 7.72808 9.38105C8.00242 10.0078 8.39754 10.5743 8.89088 11.0483C9.38422 11.5223 9.96611 11.8945 10.6033 12.1435C11.2405 12.3926 11.9205 12.5137 12.6045 12.4998Z" fill="#262626"/>
<path d="M16.6672 37.4999C16.1147 37.4999 15.5848 37.7194 15.1941 38.1101C14.8034 38.5008 14.5839 39.0307 14.5839 39.5833V43.7499H10.4172V33.3333H6.25056V20.8333C6.25056 20.2807 6.47005 19.7508 6.86075 19.3601C7.25145 18.9694 7.78136 18.7499 8.33389 18.7499H14.5839C15.1364 18.7499 15.6663 18.5304 16.057 18.1397C16.4477 17.749 16.6672 17.2191 16.6672 16.6666C16.6672 16.1141 16.4477 15.5841 16.057 15.1934C15.6663 14.8027 15.1364 14.5833 14.5839 14.5833H8.33389C6.67629 14.5833 5.08658 15.2417 3.91448 16.4138C2.74237 17.5859 2.08389 19.1756 2.08389 20.8333V34.3749C2.06934 34.7892 2.14022 35.2021 2.29212 35.5878C2.44401 35.9735 2.67368 36.3239 2.96681 36.617C3.25995 36.9101 3.61028 37.1398 3.99601 37.2917C4.38173 37.4436 4.79459 37.5145 5.20889 37.4999H6.25056V44.7916C6.23601 45.2059 6.30689 45.6187 6.45878 46.0045C6.61068 46.3902 6.84034 46.7405 7.13348 47.0337C7.42661 47.3268 7.77695 47.5565 8.16267 47.7084C8.5484 47.8603 8.96126 47.9311 9.37556 47.9166H15.6256C16.0399 47.9311 16.4527 47.8603 16.8384 47.7084C17.2242 47.5565 17.5745 47.3268 17.8676 47.0337C18.1608 46.7405 18.3904 46.3902 18.5423 46.0045C18.6942 45.6187 18.7651 45.2059 18.7506 44.7916V39.5833C18.7506 39.0307 18.5311 38.5008 18.1404 38.1101C17.7497 37.7194 17.2198 37.4999 16.6672 37.4999Z" fill="#262626"/>
<path d="M37.6045 12.4998C38.6343 12.479 39.6349 12.1533 40.4796 11.564C41.3243 10.9746 41.9753 10.148 42.3503 9.18861C42.7253 8.22926 42.8074 7.18027 42.5862 6.17427C42.3651 5.16827 41.8506 4.25044 41.1078 3.53681C40.3651 2.82318 39.4274 2.34581 38.4134 2.16506C37.3993 1.9843 36.3545 2.10827 35.4109 2.5213C34.4673 2.93433 33.6673 3.61786 33.1122 4.48548C32.5571 5.3531 32.2716 6.36585 32.292 7.39567C32.3056 8.07968 32.4538 8.75432 32.7281 9.38105C33.0024 10.0078 33.3975 10.5743 33.8909 11.0483C34.3842 11.5223 34.9661 11.8945 35.6033 12.1435C36.2405 12.3926 36.9205 12.5137 37.6045 12.4998Z" fill="#262626"/>
<path d="M41.6676 14.5833H34.3759C33.8234 14.5833 33.2934 14.8027 32.9027 15.1934C32.512 15.5841 32.2926 16.1141 32.2926 16.6666C32.2926 17.2191 32.512 17.749 32.9027 18.1397C33.2934 18.5304 33.8234 18.7499 34.3759 18.7499H41.6676C42.2201 18.7499 42.75 18.9694 43.1407 19.3601C43.5314 19.7508 43.7509 20.2807 43.7509 20.8333V33.3333H39.5842V43.7499H35.4176V39.5833C35.4176 39.0307 35.1981 38.5008 34.8074 38.1101C34.4167 37.7194 33.8868 37.4999 33.3342 37.4999C32.7817 37.4999 32.2518 37.7194 31.8611 38.1101C31.4704 38.5008 31.2509 39.0307 31.2509 39.5833V44.7916C31.2363 45.2059 31.3072 45.6187 31.4591 46.0045C31.611 46.3902 31.8407 46.7405 32.1338 47.0337C32.4269 47.3268 32.7773 47.5565 33.163 47.7084C33.5487 47.8603 33.9616 47.9311 34.3759 47.9166H40.6259C41.0402 47.9311 41.453 47.8603 41.8388 47.7084C42.2245 47.5565 42.5748 47.3268 42.868 47.0337C43.1611 46.7405 43.3908 46.3902 43.5427 46.0045C43.6946 45.6187 43.7654 45.2059 43.7509 44.7916V37.4999H44.7926C45.2069 37.5145 45.6197 37.4436 46.0054 37.2917C46.3912 37.1398 46.7415 36.9101 47.0346 36.617C47.3278 36.3239 47.5574 35.9735 47.7093 35.5878C47.8612 35.2021 47.9321 34.7892 47.9176 34.3749V20.8333C47.9176 19.1756 47.2591 17.5859 46.087 16.4138C44.9149 15.2417 43.3252 14.5833 41.6676 14.5833Z" fill="#262626"/>
<path d="M32.7093 34.7915L39.376 28.1248L32.7093 21.4582C32.3081 21.1573 31.8119 21.0112 31.3116 21.0467C30.8114 21.0823 30.3408 21.2971 29.9862 21.6517C29.6316 22.0063 29.4168 22.4769 29.3812 22.9772C29.3457 23.4774 29.4918 23.9736 29.7926 24.3748L31.4593 26.0415H18.5426L20.2093 24.3748C20.5102 23.9736 20.6563 23.4774 20.6207 22.9772C20.5852 22.4769 20.3704 22.0063 20.0158 21.6517C19.6612 21.2971 19.1906 21.0823 18.6903 21.0467C18.1901 21.0112 17.6938 21.1573 17.2926 21.4582L10.626 28.1248L17.2926 34.7915C17.478 34.9936 17.7034 35.1549 17.9545 35.2653C18.2055 35.3756 18.4767 35.4326 18.751 35.4326C19.0252 35.4326 19.2965 35.3756 19.5475 35.2653C19.7985 35.1549 20.0239 34.9936 20.2093 34.7915C20.4114 34.6061 20.5727 34.3807 20.6831 34.1297C20.7934 33.8786 20.8504 33.6074 20.8504 33.3332C20.8504 33.0589 20.7934 32.7877 20.6831 32.5367C20.5727 32.2856 20.4114 32.0602 20.2093 31.8748L18.5426 30.2082H31.4593L29.7926 31.8748C29.5906 32.0602 29.4292 32.2856 29.3189 32.5367C29.2085 32.7877 29.1515 33.0589 29.1515 33.3332C29.1515 33.6074 29.2085 33.8786 29.3189 34.1297C29.4292 34.3807 29.5906 34.6061 29.7926 34.7915C29.978 34.9936 30.2034 35.1549 30.4545 35.2653C30.7055 35.3756 30.9767 35.4326 31.251 35.4326C31.5252 35.4326 31.7965 35.3756 32.0475 35.2653C32.2985 35.1549 32.5239 34.9936 32.7093 34.7915Z" fill="#262626"/>
</g>
<defs>
<clipPath id="clip0_604_542">
<rect width="50" height="50" fill="white"/>
</clipPath>
</defs>
</svg>
