<svg width="50" height="50" viewBox="0 0 50 50" fill="none" xmlns="http://www.w3.org/2000/svg">
<g clip-path="url(#clip0_607_591)">
<path d="M34.5546 22.8764L38.3236 25.0603C38.3759 25.0738 38.5007 25.0974 38.6778 25.0974C38.8356 25.0974 38.9469 25.078 38.9942 25.067L39.044 25.0392C39.1191 24.7996 39.1713 24.5499 39.1713 24.285V18.2192V8.94019V3.03547C39.1713 1.63765 38.0384 0.504883 36.6407 0.504883C35.2431 0.504883 34.1102 1.63781 34.1102 3.03547V6.4096H14.7086V3.03547C14.7086 1.63765 13.5757 0.504883 12.1781 0.504883C10.7804 0.504883 9.64746 1.63765 9.64746 3.03547V8.94019V18.2192V22.0311C10.4017 21.8363 11.1979 21.725 12.0203 21.725C12.9474 21.725 13.8558 21.8633 14.7086 22.1079V20.7498H34.11V22.6612C34.2569 22.7346 34.4155 22.7954 34.5546 22.8764ZM14.7086 15.6886V11.4708H34.11V15.6884L14.7086 15.6886Z" fill="#262626"/>
<path d="M46.2419 31.4079L39.7382 35.0106C39.216 35.3 38.074 35.2898 37.5569 34.9913L33.7408 32.7795C31.712 31.6029 28.7115 31.5109 26.6053 32.5551L21.5574 35.0612C21.0041 35.3345 19.829 35.2881 19.3102 34.9667L15.9133 32.8747C13.8938 31.6297 10.884 31.5031 8.75666 32.5719L1.39597 36.2667C0.146728 36.8944 -0.357778 38.4152 0.269868 39.6636C0.713579 40.5486 1.60596 41.0597 2.53386 41.0597C2.91507 41.0597 3.3031 40.972 3.66679 40.7907L11.0284 37.095C11.5767 36.8208 12.7425 36.8657 13.2587 37.1836L16.6566 39.2756C18.6718 40.5182 21.6816 40.6531 23.809 39.5945L28.8567 37.0884C29.4287 36.8049 30.6568 36.8421 31.2034 37.1583L35.0195 39.37C37.0845 40.5678 40.1018 40.5965 42.192 39.4375L48.6949 35.8348C49.9172 35.1574 50.3601 33.6179 49.6827 32.3949C49.0045 31.1717 47.4651 30.7297 46.2419 31.4079Z" fill="#262626"/>
<path d="M46.2419 39.8433L39.7382 43.446C39.216 43.7354 38.074 43.7261 37.5569 43.4266L33.7408 41.2149C31.712 40.0382 28.7115 39.9453 26.6053 40.9905L21.5574 43.4967C21.0041 43.77 19.829 43.7228 19.3102 43.4023L15.9133 41.3103C13.8938 40.0652 10.884 39.9386 8.75666 41.0074L1.39597 44.7021C0.146728 45.3297 -0.357778 46.8505 0.269868 48.099C0.713579 48.9839 1.60596 49.4951 2.53386 49.4951C2.91507 49.4951 3.3031 49.4073 3.66679 49.226L11.0284 45.5304C11.5767 45.2562 12.7425 45.301 13.2587 45.6189L16.6566 47.7109C18.6718 48.9535 21.6816 49.0884 23.809 48.0298L28.8567 45.5237C29.4287 45.2402 30.6568 45.2782 31.2034 45.5937L35.0195 47.8054C37.0845 49.0031 40.1018 49.0311 42.192 47.8729L48.6949 44.2701C49.9172 43.5927 50.3601 42.0533 49.6827 40.8303C49.0045 39.608 47.4651 39.1651 46.2419 39.8433Z" fill="#262626"/>
<path d="M0.294752 31.214C0.730088 32.1056 1.6141 32.6227 2.53269 32.6227C2.90475 32.6227 3.28255 32.5376 3.63863 32.3595L11.0003 28.6648C11.2499 28.5392 11.6245 28.4792 12.01 28.4792C12.4942 28.4792 12.9961 28.5736 13.2897 28.7551L16.6883 30.8496C17.7857 31.5253 19.1794 31.8702 20.5618 31.8702C21.698 31.8702 22.8275 31.6374 23.7799 31.165L28.8268 28.6589C29.0934 28.5265 29.4999 28.4615 29.9166 28.4615C30.4151 28.4615 30.9272 28.5535 31.2334 28.7306L35.0495 30.9423C36.0954 31.5479 37.3861 31.8516 38.675 31.8516C39.9117 31.8516 41.1465 31.5715 42.1605 31.0088L48.6641 27.4069C49.8738 26.7371 50.3191 25.2001 49.6587 23.9737C49.2057 23.1319 48.3504 22.6553 47.4672 22.6553C47.0632 22.6553 46.6531 22.7548 46.2736 22.9658L39.769 26.5677C39.5066 26.7136 39.095 26.7853 38.6792 26.7853C38.2995 26.7853 37.925 26.722 37.6527 26.604C37.6097 26.5854 37.5632 26.5694 37.5261 26.5483L34.141 24.5871L33.71 24.3374C32.632 23.7114 31.2763 23.3952 29.9292 23.3952C28.7626 23.3952 27.6019 23.6331 26.6336 24.1148L21.5866 26.6209C21.337 26.745 20.9624 26.8039 20.5769 26.8039C20.0868 26.8039 19.5773 26.7078 19.2795 26.5255L15.8809 24.431C15.5208 24.2093 15.1225 24.0371 14.7101 23.8878C13.8683 23.5824 12.9471 23.4146 12.0218 23.4146C11.2053 23.4146 10.3946 23.5411 9.64896 23.784C9.35041 23.8819 9.05931 23.9932 8.78604 24.1306L1.42504 27.8255C0.189292 28.4429 -0.31692 29.9614 0.294752 31.214Z" fill="#262626"/>
</g>
<defs>
<clipPath id="clip0_607_591">
<rect width="50" height="50" fill="white"/>
</clipPath>
</defs>
</svg>
