<svg width="50" height="50" viewBox="0 0 50 50" fill="none" xmlns="http://www.w3.org/2000/svg">
<path d="M43.7503 0.166626H6.25033C5.69779 0.166626 5.16789 0.386119 4.77719 0.77682C4.38649 1.16752 4.16699 1.69742 4.16699 2.24996C4.16699 2.80249 4.38649 3.3324 4.77719 3.7231C5.16789 4.1138 5.69779 4.33329 6.25033 4.33329H8.33366V39.75C8.33366 40.3025 8.55315 40.8324 8.94385 41.2231C9.33455 41.6138 9.86446 41.8333 10.417 41.8333C10.9695 41.8333 11.4994 41.6138 11.8901 41.2231C12.2808 40.8324 12.5003 40.3025 12.5003 39.75V18.9166H37.5003V39.75C37.5003 40.3025 37.7198 40.8324 38.1105 41.2231C38.5012 41.6138 39.0311 41.8333 39.5837 41.8333C40.1362 41.8333 40.6661 41.6138 41.0568 41.2231C41.4475 40.8324 41.667 40.3025 41.667 39.75V4.33329H43.7503C44.3029 4.33329 44.8328 4.1138 45.2235 3.7231C45.6142 3.3324 45.8337 2.80249 45.8337 2.24996C45.8337 1.69742 45.6142 1.16752 45.2235 0.77682C44.8328 0.386119 44.3029 0.166626 43.7503 0.166626ZM29.167 12.6666H20.8337C20.2811 12.6666 19.7512 12.4471 19.3605 12.0564C18.9698 11.6657 18.7503 11.1358 18.7503 10.5833C18.7503 10.0308 18.9698 9.50085 19.3605 9.11015C19.7512 8.71945 20.2811 8.49996 20.8337 8.49996H29.167C29.7195 8.49996 30.2494 8.71945 30.6401 9.11015C31.0308 9.50085 31.2503 10.0308 31.2503 10.5833C31.2503 11.1358 31.0308 11.6657 30.6401 12.0564C30.2494 12.4471 29.7195 12.6666 29.167 12.6666Z" fill="black"/>
</svg>
