<svg width="52" height="52" viewBox="0 0 52 52" fill="none" xmlns="http://www.w3.org/2000/svg">
<path d="M43.875 47.5H8.125C6.3375 47.5 4.875 46.0375 4.875 44.25V21.5C4.875 19.7125 6.3375 18.25 8.125 18.25H43.875C45.6625 18.25 47.125 19.7125 47.125 21.5V44.25C47.125 46.0375 45.6625 47.5 43.875 47.5Z" stroke="#262626" stroke-width="4" stroke-miterlimit="10" stroke-linecap="round" stroke-linejoin="round"/>
<path d="M11.375 5.25L21.125 18.25L34.125 2" stroke="#262626" stroke-width="4" stroke-miterlimit="10" stroke-linecap="round" stroke-linejoin="round"/>
<path d="M34.125 18.25V47.5" stroke="#262626" stroke-width="2" stroke-miterlimit="10" stroke-linecap="round" stroke-linejoin="round"/>
<path d="M40.625 28C41.5225 28 42.25 27.2725 42.25 26.375C42.25 25.4775 41.5225 24.75 40.625 24.75C39.7275 24.75 39 25.4775 39 26.375C39 27.2725 39.7275 28 40.625 28Z" stroke="#262626" stroke-width="2" stroke-miterlimit="10" stroke-linecap="round" stroke-linejoin="round"/>
<path d="M40.625 39.375C41.5225 39.375 42.25 38.6475 42.25 37.75C42.25 36.8525 41.5225 36.125 40.625 36.125C39.7275 36.125 39 36.8525 39 37.75C39 38.6475 39.7275 39.375 40.625 39.375Z" fill="#262626"/>
<path d="M40.625 34.5C41.5225 34.5 42.25 33.7725 42.25 32.875C42.25 31.9775 41.5225 31.25 40.625 31.25C39.7275 31.25 39 31.9775 39 32.875C39 33.7725 39.7275 34.5 40.625 34.5Z" fill="#262626"/>
</svg>
