<svg width="37" height="54" viewBox="0 0 37 54" fill="none" xmlns="http://www.w3.org/2000/svg">
<path d="M32.6826 30.121L33.5212 29.4924C36.8163 27.0227 37.7328 22.4801 35.6532 18.9257L29.6063 8.59185L27.9032 4.54361L30.4495 2.63513C31.0964 2.15022 31.2277 1.23275 30.7428 0.585889C30.258 -0.0609681 29.3406 -0.192236 28.6937 0.292555L25.233 2.88666C24.6955 3.28948 24.5012 4.00648 24.7617 4.62558L26.5024 8.76293L0.823137 28.0108C0.41247 28.3185 0.193026 28.819 0.244784 29.3296C0.296542 29.8401 0.61189 30.2863 1.07595 30.5055L17.1559 38.1005L15.0506 39.6786C13.8255 38.5333 12.284 37.7883 10.589 37.5456C8.40298 37.2328 6.22551 37.7897 4.45837 39.1144C2.69122 40.439 1.54564 42.3724 1.23263 44.5586C0.919744 46.7447 1.4769 48.9219 2.80141 50.6891C4.12592 52.4562 6.05935 53.6018 8.24548 53.9148C8.64303 53.9717 9.04 53.9998 9.4345 53.9998C11.2096 53.9998 12.9303 53.4298 14.376 52.346C16.1431 51.0214 17.2887 49.088 17.6017 46.9018C17.8443 45.2068 17.5617 43.5182 16.8061 42.021L30.34 31.8767L33.5431 36.1501C33.8306 36.5337 34.2703 36.7361 34.7155 36.7361C35.0209 36.7361 35.329 36.6408 35.5923 36.4435C36.2391 35.9587 36.3705 35.0412 35.8856 34.3943L32.6826 30.121ZM27.8598 11.4039L33.1264 20.4042C34.4541 22.6732 33.869 25.5732 31.7655 27.1499L19.8055 36.1145L4.52289 28.8961L27.8598 11.4039ZM14.7039 46.4872C14.5016 47.8993 13.7618 49.1481 12.6203 50.0038C11.4789 50.8593 10.0733 51.2194 8.66048 51.017C7.24838 50.8149 5.99951 50.075 5.14399 48.9335C4.28834 47.792 3.92849 46.3858 4.13072 44.9737C4.33296 43.5616 5.07279 42.3127 6.21427 41.4571C7.14826 40.757 8.25941 40.3889 9.40617 40.3889C9.66086 40.3889 9.91742 40.407 10.1742 40.4438C11.0891 40.5747 11.9347 40.9327 12.6499 41.4781L8.53951 44.5591C7.89266 45.0439 7.76127 45.9614 8.24618 46.6083C8.53366 46.9919 8.97337 47.1942 9.41858 47.1942C9.72397 47.1942 10.0321 47.0989 10.2953 46.9016L14.4058 43.8206C14.7284 44.6602 14.8348 45.5723 14.7039 46.4872Z" fill="#262626"/>
</svg>
