<svg width="38" height="54" viewBox="0 0 38 54" fill="none" xmlns="http://www.w3.org/2000/svg">
<path d="M33.1826 30.121L34.0212 29.4924C37.3163 27.0227 38.2328 22.4801 36.1532 18.9257L30.1063 8.59185L28.4032 4.54361L30.9495 2.63513C31.5964 2.15022 31.7277 1.23275 31.2428 0.585889C30.758 -0.0609681 29.8406 -0.192236 29.1937 0.292555L25.733 2.88666C25.1955 3.28948 25.0012 4.00648 25.2617 4.62558L27.0024 8.76293L1.32314 28.0108C0.91247 28.3185 0.693026 28.819 0.744784 29.3296C0.796542 29.8401 1.11189 30.2863 1.57595 30.5055L17.6559 38.1005L15.5506 39.6786C14.3255 38.5333 12.784 37.7883 11.089 37.5456C8.90298 37.2328 6.72551 37.7897 4.95837 39.1144C3.19122 40.439 2.04564 42.3724 1.73263 44.5586C1.41974 46.7447 1.9769 48.9219 3.30141 50.6891C4.62592 52.4562 6.55935 53.6018 8.74548 53.9148C9.14303 53.9717 9.54 53.9998 9.9345 53.9998C11.7096 53.9998 13.4303 53.4298 14.876 52.346C16.6431 51.0214 17.7887 49.088 18.1017 46.9018C18.3443 45.2068 18.0617 43.5182 17.3061 42.021L30.84 31.8767L34.0431 36.1501C34.3306 36.5337 34.7703 36.7361 35.2155 36.7361C35.5209 36.7361 35.829 36.6408 36.0923 36.4435C36.7391 35.9587 36.8705 35.0412 36.3856 34.3943L33.1826 30.121ZM28.3598 11.4039L33.6264 20.4042C34.9541 22.6732 34.369 25.5732 32.2655 27.1499L20.3055 36.1145L5.02289 28.8961L28.3598 11.4039ZM15.2039 46.4872C15.0016 47.8993 14.2618 49.1481 13.1203 50.0038C11.9789 50.8593 10.5733 51.2194 9.16048 51.017C7.74838 50.8149 6.49951 50.075 5.64399 48.9335C4.78834 47.792 4.42849 46.3858 4.63072 44.9737C4.83296 43.5616 5.57279 42.3127 6.71427 41.4571C7.64826 40.757 8.75941 40.3889 9.90617 40.3889C10.1609 40.3889 10.4174 40.407 10.6742 40.4438C11.5891 40.5747 12.4347 40.9327 13.1499 41.4781L9.03951 44.5591C8.39266 45.0439 8.26127 45.9614 8.74618 46.6083C9.03366 46.9919 9.47337 47.1942 9.91858 47.1942C10.224 47.1942 10.5321 47.0989 10.7953 46.9016L14.9058 43.8206C15.2284 44.6602 15.3348 45.5723 15.2039 46.4872Z" fill="#262626"/>
</svg>
