<svg width="50" height="50" viewBox="0 0 50 50" fill="none" xmlns="http://www.w3.org/2000/svg">
<g clip-path="url(#clip0_607_724)">
<path d="M8.6166 4.53623L8.61631 2.26807L8.61611 0H2.31797C1.06533 0 0.0498047 1.01553 0.0498047 2.26816V36.5126C0.697754 35.7474 1.46289 35.0851 2.31797 34.5534C3.01914 34.1175 3.78018 33.7697 4.58613 33.5255C5.46416 33.2594 6.39443 33.1148 7.3582 33.1148H8.61895L8.6166 4.53623Z" fill="black"/>
<path d="M31.8056 4.53623L31.8053 2.26816V0H24.748L24.7483 2.26816L24.7485 4.53623L24.7509 33.1147H31.8083L31.8056 4.53623Z" fill="black"/>
<path d="M44.9059 2.26797C44.9056 1.01533 43.8903 0 42.6377 0H36.3398V2.26816L36.3401 4.53633L36.3429 33.1148H40.3725H42.6406H44.9088L44.9059 2.26797Z" fill="black"/>
<path d="M20.2101 4.53623L20.21 2.26816L20.2097 0H13.1523L13.1525 2.26816L13.1528 4.53623L13.1553 33.1147H20.2125L20.2101 4.53623Z" fill="black"/>
<path d="M47.9261 37.6511H44.9096H42.6414H40.3732H15.4973C15.9332 38.3523 16.2812 39.1133 16.5253 39.9193C16.6209 40.2349 16.6998 40.5576 16.7627 40.886C16.8749 41.4711 16.9358 42.0742 16.9358 42.6916C16.9358 43.6553 16.7914 44.5858 16.5253 45.4638C16.2811 46.2698 15.9332 47.0308 15.4973 47.732C14.9656 48.5871 14.3033 49.3522 13.5381 50.0001H42.6414C46.6711 50.0001 49.9496 46.7214 49.9496 42.6916C49.9497 40.7385 49.1782 38.9634 47.9261 37.6511Z" fill="black"/>
<path d="M12.2448 41.4507C12.105 40.8981 11.8733 40.3822 11.5677 39.9193C10.6659 38.5531 9.11797 37.6511 7.35859 37.6511C6.33428 37.6511 5.38184 37.9575 4.58652 38.4825C3.22031 39.3841 2.31836 40.9322 2.31836 42.6916C2.31836 43.4839 2.50166 44.2332 2.82744 44.9002C3.64619 46.5767 5.36728 47.732 7.35859 47.732C9.11777 47.732 10.6658 46.83 11.5677 45.4638C12.0929 44.6683 12.3992 43.7159 12.3992 42.6916C12.3992 42.2633 12.3456 41.8476 12.2448 41.4507Z" fill="black"/>
</g>
<defs>
<clipPath id="clip0_607_724">
<rect width="50" height="50" fill="white"/>
</clipPath>
</defs>
</svg>
