<svg width="52" height="52" viewBox="0 0 52 52" fill="none" xmlns="http://www.w3.org/2000/svg">
<g clip-path="url(#clip0_607_756)">
<path d="M49.7416 3.39127C48.8052 3.39127 48.0459 4.15045 48.0459 5.08696V10.1739H37.5804C37.0687 8.73102 35.9236 7.58601 34.4808 7.07423V3.39127H39.5677C40.5041 3.39127 41.2634 2.63209 41.2634 1.69559C41.2634 0.759078 40.5041 0 39.5677 0C38.7751 0 19.7389 0 19.2199 0C18.2835 0 17.5242 0.75918 17.5242 1.69569C17.5242 2.6322 18.2834 3.39137 19.2199 3.39137H24.3068V7.07434C22.8639 7.58611 21.7189 8.73112 21.2071 10.174H9.04595C6.24099 10.174 3.95898 12.456 3.95898 15.261V25.4349C3.95898 26.3713 4.71806 27.1306 5.65467 27.1306H12.4373C13.3737 27.1306 14.133 26.3714 14.133 25.4349V20.3479H21.2072C21.9072 22.3216 23.792 23.7392 26.0025 23.7392H32.7852C34.9958 23.7392 36.8805 22.3215 37.5804 20.3479H48.046V25.4349C48.046 26.3713 48.8052 27.1306 49.7417 27.1306C50.6782 27.1306 51.4374 26.3714 51.4374 25.4349C51.4374 24.6423 51.4374 5.60605 51.4374 5.08706C51.4372 4.15055 50.678 3.39127 49.7416 3.39127ZM20.9156 16.9566H12.4373C11.5009 16.9566 10.7416 17.7157 10.7416 18.6523V23.7392H7.35026V15.261C7.35026 14.326 8.11096 13.5653 9.04595 13.5653H20.9156V16.9566ZM27.6981 3.39127H31.0894V6.78255H27.6981V3.39127ZM34.4808 18.6522C34.4808 19.5871 33.72 20.3478 32.7851 20.3478H26.0024C25.0674 20.3478 24.3067 19.5871 24.3067 18.6522V11.8696C24.3067 10.9346 25.0673 10.1739 26.0024 10.1739H32.7851C33.72 10.1739 34.4808 10.9346 34.4808 11.8696V18.6522ZM48.0459 16.9566H37.872V13.5653H48.0459V16.9566Z" fill="black"/>
<path d="M15.6771 38.2396L10.3709 31.5842C9.69274 30.7335 8.39762 30.7332 7.71918 31.5842L2.41294 38.2396C-1.98085 43.7501 1.93723 52 9.04498 52C16.1511 52 20.072 43.7518 15.6771 38.2396ZM9.04498 48.6087C4.78291 48.6087 2.42757 43.6611 5.06444 40.3538L9.04498 35.3614L13.0255 40.3538C15.6603 43.6583 13.3096 48.6087 9.04498 48.6087Z" fill="black"/>
</g>
<defs>
<clipPath id="clip0_607_756">
<rect width="52" height="52" fill="white"/>
</clipPath>
</defs>
</svg>
